<mxfile host="app.diagrams.net" modified="2021-12-24T09:20:19.131Z" agent="5.0 (Macintosh; Intel Mac OS X 10_15_7) AppleWebKit/537.36 (KHTML, like Gecko) Chrome/96.0.4664.110 Safari/537.36" etag="g8_IJbYCvChw43D0u6Jl" version="15.9.4" type="github">
  <diagram id="IvX5S2ykRkgxAyiZN86N" name="Page-1">
    <mxGraphModel dx="1186" dy="738" grid="1" gridSize="10" guides="1" tooltips="1" connect="1" arrows="1" fold="1" page="1" pageScale="1" pageWidth="583" pageHeight="413" math="0" shadow="0">
      <root>
        <mxCell id="0" />
        <mxCell id="1" parent="0" />
        <mxCell id="s_29Rdj_nK-GK0hqZ-AP-2" value="" style="rounded=1;whiteSpace=wrap;html=1;" vertex="1" parent="1">
          <mxGeometry x="30" y="130" width="200" height="420" as="geometry" />
        </mxCell>
        <mxCell id="s_29Rdj_nK-GK0hqZ-AP-1" value="" style="whiteSpace=wrap;html=1;" vertex="1" parent="1">
          <mxGeometry x="40" y="160" width="180" height="360" as="geometry" />
        </mxCell>
        <mxCell id="s_29Rdj_nK-GK0hqZ-AP-3" value="" style="rounded=0;whiteSpace=wrap;html=1;sketch=1;fillStyle=zigzag;fillColor=#1C1C1C;" vertex="1" parent="1">
          <mxGeometry x="50" y="170" width="160" height="270" as="geometry" />
        </mxCell>
        <mxCell id="s_29Rdj_nK-GK0hqZ-AP-4" value="" style="rounded=1;whiteSpace=wrap;html=1;" vertex="1" parent="1">
          <mxGeometry x="292" y="130" width="200" height="420" as="geometry" />
        </mxCell>
        <mxCell id="s_29Rdj_nK-GK0hqZ-AP-5" value="" style="whiteSpace=wrap;html=1;" vertex="1" parent="1">
          <mxGeometry x="302" y="160" width="180" height="360" as="geometry" />
        </mxCell>
        <mxCell id="s_29Rdj_nK-GK0hqZ-AP-6" value="" style="rounded=0;whiteSpace=wrap;html=1;sketch=1;fillStyle=zigzag;fillColor=#B5B5B5;" vertex="1" parent="1">
          <mxGeometry x="312" y="170" width="160" height="270" as="geometry" />
        </mxCell>
        <mxCell id="s_29Rdj_nK-GK0hqZ-AP-7" value="" style="rounded=0;whiteSpace=wrap;html=1;sketch=1;fillStyle=zigzag;fillColor=#1C1C1C;" vertex="1" parent="1">
          <mxGeometry x="312" y="460" width="160" height="120" as="geometry" />
        </mxCell>
        <mxCell id="s_29Rdj_nK-GK0hqZ-AP-9" value="" style="rounded=1;whiteSpace=wrap;html=1;" vertex="1" parent="1">
          <mxGeometry x="560" y="130" width="200" height="420" as="geometry" />
        </mxCell>
        <mxCell id="s_29Rdj_nK-GK0hqZ-AP-10" value="" style="whiteSpace=wrap;html=1;" vertex="1" parent="1">
          <mxGeometry x="570" y="160" width="180" height="360" as="geometry" />
        </mxCell>
        <mxCell id="s_29Rdj_nK-GK0hqZ-AP-11" value="" style="rounded=0;whiteSpace=wrap;html=1;sketch=1;fillStyle=zigzag;fillColor=#B5B5B5;" vertex="1" parent="1">
          <mxGeometry x="580" y="170" width="160" height="270" as="geometry" />
        </mxCell>
        <mxCell id="s_29Rdj_nK-GK0hqZ-AP-12" value="" style="rounded=0;whiteSpace=wrap;html=1;sketch=1;fillStyle=zigzag;fillColor=#B5B5B5;" vertex="1" parent="1">
          <mxGeometry x="580" y="460" width="160" height="120" as="geometry" />
        </mxCell>
        <mxCell id="s_29Rdj_nK-GK0hqZ-AP-13" value="" style="rounded=0;whiteSpace=wrap;html=1;sketch=1;fillStyle=zigzag;fillColor=#1C1C1C;" vertex="1" parent="1">
          <mxGeometry x="580" y="600" width="160" height="80" as="geometry" />
        </mxCell>
        <mxCell id="s_29Rdj_nK-GK0hqZ-AP-14" value="" style="rounded=0;whiteSpace=wrap;html=1;sketch=1;fillStyle=zigzag;fillColor=#1C1C1C;" vertex="1" parent="1">
          <mxGeometry x="580" y="70" width="160" height="80" as="geometry" />
        </mxCell>
        <mxCell id="s_29Rdj_nK-GK0hqZ-AP-16" value="" style="shape=flexArrow;endArrow=classic;html=1;rounded=1;sketch=1;" edge="1" parent="1">
          <mxGeometry width="50" height="50" relative="1" as="geometry">
            <mxPoint x="236" y="330" as="sourcePoint" />
            <mxPoint x="286" y="330" as="targetPoint" />
          </mxGeometry>
        </mxCell>
        <mxCell id="s_29Rdj_nK-GK0hqZ-AP-17" value="" style="shape=flexArrow;endArrow=classic;html=1;rounded=1;sketch=1;" edge="1" parent="1">
          <mxGeometry width="50" height="50" relative="1" as="geometry">
            <mxPoint x="502" y="331.5" as="sourcePoint" />
            <mxPoint x="552" y="331.5" as="targetPoint" />
          </mxGeometry>
        </mxCell>
        <mxCell id="s_29Rdj_nK-GK0hqZ-AP-18" value="&lt;font style=&quot;font-size: 16px&quot;&gt;渲染次屏内容&lt;br&gt;（Level 2）&lt;br&gt;&lt;/font&gt;" style="text;html=1;align=center;verticalAlign=middle;resizable=0;points=[];autosize=1;strokeColor=none;fillColor=none;" vertex="1" parent="1">
          <mxGeometry x="337" y="610" width="110" height="40" as="geometry" />
        </mxCell>
        <mxCell id="s_29Rdj_nK-GK0hqZ-AP-19" value="&lt;font style=&quot;font-size: 16px&quot;&gt;渲染首屏内容&lt;br&gt;（Level 1）&lt;br&gt;&lt;/font&gt;" style="text;html=1;align=center;verticalAlign=middle;resizable=0;points=[];autosize=1;strokeColor=none;fillColor=none;" vertex="1" parent="1">
          <mxGeometry x="75" y="570" width="110" height="40" as="geometry" />
        </mxCell>
        <mxCell id="s_29Rdj_nK-GK0hqZ-AP-20" value="&lt;font style=&quot;font-size: 16px&quot;&gt;渲染隐藏内容&lt;br&gt;（Level 3）&lt;br&gt;&lt;/font&gt;" style="text;html=1;align=center;verticalAlign=middle;resizable=0;points=[];autosize=1;strokeColor=none;fillColor=none;" vertex="1" parent="1">
          <mxGeometry x="605" y="700" width="110" height="40" as="geometry" />
        </mxCell>
      </root>
    </mxGraphModel>
  </diagram>
</mxfile>
